<svg width="97" height="83" viewBox="0 0 97 83" fill="none" xmlns="http://www.w3.org/2000/svg">
<g id="Group 497">
<path id="Vector (Stroke)" fill-rule="evenodd" clip-rule="evenodd" d="M49.6344 15.2085C35.1539 15.2085 23.4152 26.9472 23.4152 41.4277C23.4152 55.9082 35.1539 67.6469 49.6344 67.6469C64.1148 67.6469 75.8536 55.9082 75.8536 41.4277C75.8536 26.9472 64.1148 15.2085 49.6344 15.2085ZM23.0492 41.4277C23.0492 26.7451 34.9518 14.8425 49.6344 14.8425C64.317 14.8425 76.2196 26.7451 76.2196 41.4277C76.2196 56.1103 64.317 68.0129 49.6344 68.0129C34.9518 68.0129 23.0492 56.1103 23.0492 41.4277Z" fill="#027E60"/>
<path id="Vector (Stroke)_2" fill-rule="evenodd" clip-rule="evenodd" d="M49.7242 3.61774C28.9606 3.61774 12.1283 20.45 12.1283 41.2136C12.1283 61.9772 28.9606 78.8094 49.7242 78.8094C70.4878 78.8094 87.32 61.9772 87.32 41.2136C87.32 20.45 70.4878 3.61774 49.7242 3.61774ZM11.7623 41.2136C11.7623 20.2478 28.7584 3.25175 49.7242 3.25175C70.6899 3.25175 87.686 20.2478 87.686 41.2136C87.686 62.1793 70.6899 79.1754 49.7242 79.1754C28.7584 79.1754 11.7623 62.1793 11.7623 41.2136Z" fill="#027E60"/>
<path id="Vector (Stroke)_3" fill-rule="evenodd" clip-rule="evenodd" d="M49.6347 13.5982C34.2648 13.5982 21.8051 26.0579 21.8051 41.4278C21.8051 56.7976 34.2648 69.2573 49.6347 69.2573C65.0045 69.2573 77.4642 56.7976 77.4642 41.4278C77.4642 26.0579 65.0045 13.5982 49.6347 13.5982ZM20.3412 41.4278C20.3412 25.2494 33.4563 12.1343 49.6347 12.1343C65.813 12.1343 78.9281 25.2494 78.9281 41.4278C78.9281 57.6061 65.813 70.7212 49.6347 70.7212C33.4563 70.7212 20.3412 57.6061 20.3412 41.4278Z" fill="#027E60"/>
<path id="Vector (Stroke)_4" fill-rule="evenodd" clip-rule="evenodd" d="M49.7244 2.37891C28.2765 2.37891 10.8896 19.7658 10.8896 41.2136C10.8896 62.6614 28.2765 80.0483 49.7244 80.0483C71.1722 80.0483 88.5591 62.6614 88.5591 41.2136C88.5591 19.7658 71.1722 2.37891 49.7244 2.37891ZM8.51074 41.2136C8.51074 18.452 26.9627 0 49.7244 0C72.486 0 90.938 18.452 90.938 41.2136C90.938 63.9753 72.486 82.4272 49.7244 82.4272C26.9627 82.4272 8.51074 63.9753 8.51074 41.2136Z" fill="#027E60"/>
<path id="Vector" d="M85.7479 17.9981L3.53492 44.4254C1.70972 45.0121 0.705726 46.9674 1.29244 48.7926L6.06315 63.6338C6.64986 65.459 8.6051 66.463 10.4303 65.8763L92.6433 39.4489C94.4685 38.8622 95.4725 36.907 94.8858 35.0818L90.115 20.2406C89.5283 18.4154 87.5731 17.4114 85.7479 17.9981Z" fill="#C39673"/>
<path id="Vector (Stroke)_5" fill-rule="evenodd" clip-rule="evenodd" d="M3.59103 44.5996C1.86205 45.1554 0.91098 47.0076 1.46676 48.7365L6.23748 63.5778C6.79326 65.3068 8.64543 66.2578 10.3744 65.702L92.5874 39.2747C94.3164 38.7189 95.2674 36.8667 94.7116 35.1378L89.9409 20.2965C89.3851 18.5675 87.533 17.6165 85.804 18.1722L3.59103 44.5996ZM1.11834 48.8485C0.500697 46.9271 1.55761 44.8688 3.47903 44.2512L85.692 17.8238C87.6134 17.2062 89.6717 18.2631 90.2894 20.1845L95.0601 35.0257C95.6777 36.9472 94.6208 39.0055 92.6994 39.6231L10.4864 66.0505C8.565 66.6681 6.50669 65.6112 5.88905 63.6898L1.11834 48.8485Z" fill="#C39673"/>
<path id="Vector (Stroke)_6" fill-rule="evenodd" clip-rule="evenodd" d="M5.20122 45.0351C3.42413 45.6063 2.4466 47.51 3.01785 49.2871L7.16415 62.1859C7.7354 63.963 9.6391 64.9405 11.4162 64.3693L91.4079 38.6559C93.185 38.0847 94.1626 36.181 93.5913 34.4039L89.445 21.5051C88.8738 19.728 86.9701 18.7505 85.193 19.3217L5.20122 45.0351ZM2.84363 49.3431C2.24146 47.4698 3.27191 45.463 5.14522 44.8609L85.137 19.1475C87.0103 18.5453 89.0171 19.5758 89.6192 21.4491L93.7655 34.3479C94.3677 36.2212 93.3373 38.2279 91.4639 38.8301L11.4722 64.5435C9.59889 65.1456 7.59211 64.1152 6.98993 62.2419L2.84363 49.3431Z" fill="#027E60"/>
<path id="Vector_2" d="M42.9996 20.4379C43.0125 20.4475 43.0178 20.4649 43.0286 20.4768L45.0651 22.6984C45.0686 22.702 45.0729 22.7048 45.0777 22.7064C45.0825 22.708 45.0876 22.7084 45.0926 22.7076L48.101 22.2867C48.1065 22.2859 48.112 22.2867 48.1171 22.2889C48.1221 22.2912 48.1264 22.2948 48.1294 22.2994C48.1325 22.304 48.1342 22.3094 48.1343 22.3149C48.1345 22.3204 48.1331 22.3258 48.1303 22.3306L46.6352 24.9748C46.6325 24.9792 46.631 24.9843 46.631 24.9895C46.631 24.9947 46.6325 24.9997 46.6352 25.0041L47.9656 27.7344C47.9679 27.7395 47.9689 27.7451 47.9683 27.7507C47.9677 27.7563 47.9657 27.7617 47.9623 27.7662C47.9589 27.7707 47.9543 27.7742 47.9491 27.7764C47.9439 27.7785 47.9382 27.7791 47.9326 27.7783L44.9693 27.1754C44.96 27.1735 44.9511 27.1692 44.9416 27.1692C44.9321 27.1692 44.9244 27.1759 44.9176 27.1825L42.732 29.2825C42.728 29.2863 42.7231 29.2889 42.7177 29.29C42.7123 29.2911 42.7067 29.2907 42.7015 29.2888C42.6964 29.2869 42.6919 29.2836 42.6885 29.2792C42.6852 29.2749 42.6831 29.2697 42.6826 29.2642L42.3367 26.2448C42.3367 26.2401 42.3353 26.2355 42.3327 26.2316C42.3301 26.2277 42.3264 26.2247 42.3221 26.2228L39.6394 24.7955C39.6344 24.7928 39.6303 24.7889 39.6274 24.7841C39.6245 24.7792 39.6229 24.7737 39.6229 24.7681C39.6229 24.7624 39.6245 24.7569 39.6274 24.752C39.6303 24.7472 39.6344 24.7433 39.6394 24.7406L42.4044 23.4798C42.409 23.4781 42.4129 23.4751 42.4158 23.4712C42.4188 23.4673 42.4205 23.4627 42.4209 23.4578L42.9454 20.492C42.9483 20.4759 42.9459 20.4575 42.9556 20.4444C42.9606 20.4377 42.968 20.4332 42.9763 20.432C42.9845 20.4308 42.9929 20.4329 42.9996 20.4379Z" fill="#C39673"/>
<path id="Vector_3" d="M53.9001 20.0085L55.2505 21.4816C55.2531 21.4829 55.2559 21.4835 55.2588 21.4835C55.2617 21.4835 55.2645 21.4829 55.267 21.4816L57.2452 21.2053C57.2488 21.2048 57.2525 21.2054 57.2558 21.2069C57.2591 21.2085 57.262 21.2108 57.264 21.2139C57.2661 21.2169 57.2673 21.2204 57.2675 21.224C57.2678 21.2277 57.267 21.2313 57.2653 21.2345L56.2826 22.973C56.2813 22.9758 56.2806 22.979 56.2806 22.9821C56.2806 22.9853 56.2813 22.9884 56.2826 22.9913L57.1573 24.7864C57.1587 24.7897 57.1591 24.7934 57.1586 24.7969C57.1581 24.8005 57.1567 24.8038 57.1544 24.8066C57.1522 24.8094 57.1492 24.8115 57.1459 24.8128C57.1425 24.8141 57.1389 24.8145 57.1354 24.8139L55.1792 24.4168C55.1764 24.4152 55.1732 24.4143 55.17 24.4143C55.1668 24.4143 55.1637 24.4152 55.1609 24.4168L53.7244 25.8039C53.7217 25.8067 53.7182 25.8088 53.7143 25.8097C53.7105 25.8106 53.7065 25.8103 53.7028 25.809C53.6991 25.8076 53.6958 25.8052 53.6935 25.802C53.6912 25.7988 53.6898 25.795 53.6896 25.7911L53.4645 23.8074C53.4631 23.8007 53.4591 23.7949 53.4536 23.7909L51.6895 22.854C51.6865 22.852 51.684 22.8493 51.6823 22.8461C51.6806 22.8429 51.6797 22.8393 51.6797 22.8357C51.6797 22.8321 51.6806 22.8285 51.6823 22.8253C51.684 22.8221 51.6865 22.8194 51.6895 22.8174L53.5066 21.9885C53.5097 21.9874 53.5124 21.9854 53.5143 21.9828C53.5163 21.9802 53.5174 21.9771 53.5176 21.9738L53.8653 20.0067C53.8672 20.0037 53.8699 20.0013 53.873 19.9997C53.8762 19.9981 53.8797 19.9974 53.8832 19.9976C53.8867 19.9977 53.8901 19.9988 53.8931 20.0008C53.896 20.0027 53.8985 20.0053 53.9001 20.0085Z" fill="#C39673"/>
<path id="Vector (Stroke)_7" fill-rule="evenodd" clip-rule="evenodd" d="M53.9863 20.3734L53.6987 22.0009C53.6939 22.0345 53.6807 22.066 53.6607 22.0927C53.6396 22.1208 53.6115 22.1428 53.5792 22.1565L52.066 22.8469L53.5496 23.6348L53.559 23.6414C53.6019 23.6717 53.6318 23.7168 53.6432 23.7677L53.6453 23.7772L53.8343 25.4434L55.0499 24.2696L55.0694 24.2584C55.0999 24.2408 55.1346 24.2314 55.17 24.2314C55.1901 24.2314 55.2099 24.2344 55.229 24.2402L56.8477 24.5688L56.1172 23.0695L56.1163 23.0676C56.1042 23.0412 56.0976 23.0121 56.0976 22.9822C56.0976 22.9522 56.1042 22.9231 56.1163 22.8968L56.1195 22.8897L56.9434 21.4323L55.3061 21.661C55.2907 21.6647 55.2748 21.6666 55.2588 21.6666C55.2275 21.6666 55.1965 21.6593 55.1682 21.6451L55.1383 21.63L53.9863 20.3734ZM53.7902 19.8366C53.8218 19.8206 53.8572 19.813 53.8928 19.8149C53.9283 19.8168 53.9628 19.8279 53.9926 19.8473C54.0119 19.8598 54.0289 19.8754 54.0429 19.8936L55.3223 21.2891L57.2222 21.0238L57.2246 21.0235C57.2612 21.0193 57.2982 21.0252 57.3317 21.0405C57.3651 21.0558 57.3939 21.0798 57.4148 21.1103C57.4356 21.1405 57.4479 21.1759 57.4502 21.2128C57.4525 21.2498 57.4446 21.2865 57.4277 21.3189L57.4262 21.3218L56.4845 22.9878L57.3245 24.7118L57.3268 24.7174C57.3405 24.7511 57.3449 24.7877 57.3397 24.8232C57.3346 24.8589 57.32 24.8926 57.2973 24.921C57.2747 24.9493 57.2449 24.9709 57.2112 24.9838C57.1774 24.9967 57.1408 25.0004 57.1052 24.9944L57.1021 24.9939L55.222 24.6123L53.853 25.9341C53.8264 25.9606 53.7929 25.9792 53.7563 25.9878C53.7175 25.997 53.6769 25.9945 53.6395 25.9807C53.6022 25.967 53.5696 25.9425 53.546 25.9103C53.5243 25.8808 53.5109 25.8457 53.5075 25.8089L53.2923 23.9126L51.5958 23.0115L51.5884 23.0066C51.5602 22.9879 51.5371 22.9625 51.5211 22.9327C51.5051 22.903 51.4967 22.8697 51.4967 22.8358C51.4967 22.8018 51.5051 22.7686 51.5211 22.7389C51.5371 22.709 51.5602 22.6837 51.5884 22.665L51.6004 22.657L53.3523 21.8578L53.6916 19.938L53.7121 19.9067C53.7314 19.8771 53.7582 19.8528 53.7902 19.8366Z" fill="#C39673"/>
<path id="Vector_4" d="M34.1897 26.3455L35.5384 27.8186L35.5475 27.8206L35.5567 27.8186L37.5348 27.5423C37.5384 27.5418 37.5421 27.5424 37.5454 27.5439C37.5487 27.5455 37.5516 27.5478 37.5536 27.5509C37.5557 27.5539 37.5569 27.5574 37.5572 27.561C37.5574 27.5647 37.5566 27.5683 37.5549 27.5715L36.5704 29.31L36.5684 29.3191L36.5704 29.3283L37.4451 31.1234C37.447 31.1268 37.4478 31.1307 37.4475 31.1345C37.4472 31.1383 37.4459 31.142 37.4435 31.1451C37.4412 31.1482 37.4381 31.1506 37.4345 31.1519C37.4309 31.1532 37.4269 31.1535 37.4232 31.1527L35.467 30.7538L35.4578 30.751L35.4487 30.7538L34.0104 32.1409C34.0076 32.1432 34.0042 32.1447 34.0007 32.1453C33.9971 32.1459 33.9935 32.1456 33.9901 32.1442C33.9867 32.1429 33.9838 32.1407 33.9815 32.1379C33.9793 32.135 33.9779 32.1316 33.9774 32.1281L33.7505 30.1444L33.748 30.135L33.7414 30.1279L31.9773 29.191C31.9738 29.1894 31.9708 29.1868 31.9687 29.1836C31.9667 29.1804 31.9656 29.1766 31.9656 29.1727C31.9656 29.1689 31.9667 29.1651 31.9687 29.1619C31.9708 29.1586 31.9738 29.156 31.9773 29.1544L33.7944 28.3255L33.8021 28.3198L33.8054 28.3108L34.1531 26.3455C34.1547 26.342 34.1573 26.339 34.1605 26.3369C34.1638 26.3348 34.1675 26.3337 34.1714 26.3337C34.1752 26.3337 34.179 26.3348 34.1823 26.3369C34.1855 26.339 34.1881 26.342 34.1897 26.3455Z" fill="#C39673"/>
<path id="Vector (Stroke)_8" fill-rule="evenodd" clip-rule="evenodd" d="M34.2747 26.7092L33.9866 28.3378C33.9819 28.3709 33.969 28.4025 33.9487 28.4296C33.9276 28.4576 33.8995 28.4797 33.8672 28.4935L32.3539 29.1838L33.8345 29.9701L33.8413 29.9745C33.8687 29.9924 33.8918 30.0169 33.9081 30.0462C33.9221 30.0714 33.9305 30.0993 33.9329 30.1277L34.1218 31.7793L35.3336 30.6107L35.3472 30.6016C35.3798 30.5798 35.4184 30.568 35.458 30.568C35.4788 30.568 35.4995 30.5713 35.5192 30.5776L37.1365 30.9074L36.4051 29.4065L36.4042 29.4045C36.3921 29.3782 36.3856 29.3491 36.3856 29.3191C36.3856 29.2891 36.3922 29.26 36.4042 29.2337L36.4075 29.2266L37.2328 27.7692L35.5951 27.998C35.5795 28.0017 35.5636 28.0036 35.5476 28.0036C35.5182 28.0036 35.4891 27.9972 35.4622 27.9849L35.4285 27.9695L34.2747 26.7092ZM34.0618 26.1829C34.0944 26.162 34.1325 26.1507 34.1715 26.1507C34.2104 26.1507 34.2485 26.1619 34.2812 26.1829C34.3016 26.196 34.3195 26.2126 34.334 26.232L35.6106 27.6263L37.512 27.3607L37.5143 27.3604C37.5508 27.3563 37.5879 27.3621 37.6215 27.3774C37.6552 27.3928 37.6839 27.417 37.7046 27.4472C37.7254 27.4775 37.7377 27.5129 37.7399 27.5497C37.7422 27.586 37.7347 27.6227 37.7175 27.6559L37.7159 27.6588L36.7725 29.3248L37.6089 31.0415C37.6254 31.0743 37.6328 31.111 37.6302 31.1478C37.6273 31.1867 37.6133 31.2239 37.5901 31.2549C37.5668 31.2859 37.5351 31.3097 37.4985 31.3234C37.4626 31.3367 37.4237 31.3397 37.3862 31.3319L35.5098 30.9492L34.1331 32.2768L34.1285 32.2808C34.1003 32.3045 34.0665 32.3199 34.0308 32.3258C33.9948 32.3318 33.9579 32.328 33.9239 32.3148C33.8898 32.3015 33.86 32.2794 33.8376 32.2507C33.815 32.2219 33.8007 32.1876 33.7961 32.1515L33.7959 32.1502L33.5784 30.2485L31.8939 29.3538C31.8617 29.3375 31.8344 29.3129 31.8149 29.2824C31.7936 29.2492 31.7827 29.2111 31.7827 29.1727C31.7827 29.1344 31.7936 29.0962 31.8149 29.063C31.8359 29.0303 31.8659 29.0043 31.9012 28.9881L33.6402 28.1947L33.9771 26.2905L33.9869 26.2692C34.0032 26.2336 34.0293 26.2038 34.0618 26.1829Z" fill="#C39673"/>
<path id="Vector_5" d="M56.7933 62.2853L54.6743 60.1077C54.6667 60.1011 54.6568 60.0979 54.6468 60.0985L51.653 60.6109C51.6475 60.6118 51.6418 60.6111 51.6366 60.609C51.6313 60.6068 51.6268 60.6033 51.6234 60.5988C51.62 60.5943 51.6179 60.589 51.6174 60.5833C51.6168 60.5777 51.6177 60.5721 51.6201 60.567L53.0365 57.8788C53.0383 57.8745 53.0393 57.8698 53.0393 57.8651C53.0393 57.8604 53.0383 57.8557 53.0365 57.8514L51.6238 55.1614C51.6215 55.1564 51.6206 55.1509 51.6211 55.1455C51.6216 55.1401 51.6235 55.1349 51.6267 55.1304C51.6298 55.126 51.6341 55.1225 51.639 55.1202C51.644 55.1179 51.6495 55.117 51.6549 55.1174L54.6486 55.6335C54.6536 55.6343 54.6587 55.6339 54.6635 55.6323C54.6683 55.6307 54.6726 55.628 54.6761 55.6243L56.797 53.4504C56.8007 53.4461 56.8057 53.4429 56.8112 53.4414C56.8167 53.4399 56.8226 53.44 56.828 53.4417C56.8335 53.4435 56.8383 53.4468 56.8419 53.4513C56.8455 53.4557 56.8477 53.4612 56.8482 53.4669L57.2837 56.4734C57.2845 56.4782 57.2864 56.4826 57.2892 56.4865C57.2921 56.4903 57.2959 56.4933 57.3002 56.4954L60.025 57.8422C60.03 57.8446 60.0343 57.8483 60.0373 57.853C60.0403 57.8577 60.0419 57.8632 60.0419 57.8687C60.0419 57.8743 60.0403 57.8798 60.0373 57.8845C60.0343 57.8892 60.03 57.8929 60.025 57.8953L57.3002 59.2384C57.2955 59.2405 57.2915 59.2438 57.2886 59.248C57.2857 59.2522 57.284 59.2571 57.2837 59.2622L56.8446 62.2688C56.8434 62.2741 56.8409 62.2791 56.8372 62.2831C56.8335 62.2871 56.8289 62.2901 56.8237 62.2918C56.8185 62.2935 56.813 62.2937 56.8076 62.2926C56.8023 62.2914 56.7974 62.2889 56.7933 62.2853Z" fill="#C39673"/>
<path id="Vector (Stroke)_9" fill-rule="evenodd" clip-rule="evenodd" d="M56.7116 53.7999L54.8081 55.7511C54.7842 55.7757 54.754 55.795 54.7214 55.8059C54.6885 55.8168 54.6534 55.8196 54.6191 55.8141L51.9298 55.3505L53.2018 57.7725L53.2046 57.7791C53.2164 57.8064 53.2223 57.8357 53.2223 57.865C53.2223 57.8944 53.2164 57.9236 53.2046 57.951L53.2018 57.9577L51.9263 60.3784L54.6255 59.9165L54.6351 59.9159C54.6926 59.9122 54.7494 59.931 54.7932 59.9686L54.7996 59.974L56.7083 61.9355L57.102 59.2403C57.1059 59.2057 57.1183 59.1725 57.1381 59.1438C57.1592 59.1134 57.1878 59.0891 57.2214 59.0732L59.6653 57.8685L57.22 56.6598C57.1896 56.6451 57.1632 56.6233 57.1428 56.5962C57.1219 56.5683 57.1083 56.5359 57.103 56.5018L57.1026 56.4996L56.7116 53.7999ZM56.7621 53.2651C56.802 53.254 56.8444 53.2547 56.884 53.2675C56.9235 53.2802 56.9585 53.3042 56.9845 53.3366C57.0092 53.3673 57.0248 53.4042 57.0297 53.443L57.4532 56.3668L60.1051 57.6776C60.1404 57.6947 60.1704 57.7213 60.1916 57.7547C60.2134 57.7888 60.2249 57.8284 60.2249 57.8687C60.2249 57.909 60.2134 57.9486 60.1916 57.9827C60.1704 58.0161 60.1403 58.0428 60.105 58.0598L57.4534 59.3669L57.0247 62.3015L57.0234 62.3077C57.0154 62.3441 56.9981 62.378 56.9727 62.4061C56.9474 62.4339 56.9153 62.4545 56.8797 62.466C56.844 62.4775 56.8059 62.4793 56.7692 62.4715C56.7324 62.4636 56.6985 62.4461 56.6707 62.4211L56.6663 62.4171L54.5987 60.2924L51.6825 60.7915C51.6441 60.7974 51.6035 60.793 51.5675 60.7784C51.5317 60.7638 51.5004 60.7397 51.477 60.7086C51.4537 60.6774 51.4393 60.6406 51.4353 60.6021C51.4313 60.5634 51.438 60.5244 51.4544 60.4894L51.4562 60.4855L52.8369 57.8649L51.4595 55.242L51.4574 55.2374C51.442 55.2038 51.4353 55.1662 51.4389 55.1284C51.4425 55.0905 51.456 55.0549 51.4774 55.0246C51.499 54.9941 51.5283 54.9697 51.5625 54.954C51.5965 54.9383 51.6341 54.9318 51.6715 54.9352L51.6788 54.9358L54.6007 55.4395L56.664 53.3246C56.6907 53.2961 56.7246 53.2755 56.7621 53.2651Z" fill="#C39673"/>
<path id="Vector_6" d="M45.9234 63.0629L44.5308 61.6319C44.5279 61.6306 44.5248 61.6299 44.5217 61.6299C44.5185 61.6299 44.5154 61.6306 44.5125 61.6319L42.5435 61.9686C42.5399 61.969 42.5362 61.9685 42.5329 61.9669C42.5296 61.9654 42.5267 61.963 42.5247 61.96C42.5226 61.957 42.5214 61.9535 42.5212 61.9499C42.5209 61.9462 42.5217 61.9426 42.5234 61.9394L43.453 60.1716C43.4544 60.1688 43.4552 60.1657 43.4552 60.1625C43.4552 60.1593 43.4544 60.1562 43.453 60.1533L42.5234 58.3856C42.5217 58.3824 42.5209 58.3788 42.5212 58.3751C42.5214 58.3715 42.5226 58.368 42.5247 58.365C42.5267 58.3619 42.5296 58.3596 42.5329 58.358C42.5362 58.3565 42.5399 58.3559 42.5435 58.3564L44.5125 58.6949C44.5153 58.6965 44.5184 58.6973 44.5217 58.6973C44.5249 58.6973 44.528 58.6965 44.5308 58.6949L45.9252 57.2657C45.9278 57.2629 45.9311 57.2609 45.9348 57.2599C45.9385 57.2589 45.9424 57.259 45.9461 57.2601C45.9497 57.2613 45.953 57.2635 45.9554 57.2664C45.9579 57.2693 45.9595 57.2729 45.96 57.2767L46.2455 59.253C46.2456 59.2563 46.2468 59.2594 46.2487 59.262C46.2507 59.2646 46.2534 59.2666 46.2564 59.2677L48.0461 60.1533C48.0491 60.1551 48.0517 60.1577 48.0534 60.1607C48.0552 60.1638 48.0561 60.1672 48.0561 60.1707C48.0561 60.1742 48.0552 60.1777 48.0534 60.1808C48.0517 60.1838 48.0491 60.1863 48.0461 60.1881L46.2546 61.072C46.2495 61.0756 46.2456 61.0807 46.2436 61.0866L45.9563 63.0629C45.9545 63.0656 45.952 63.0677 45.9491 63.0692C45.9463 63.0707 45.9431 63.0715 45.9399 63.0715C45.9366 63.0715 45.9334 63.0707 45.9306 63.0692C45.9277 63.0677 45.9252 63.0656 45.9234 63.0629Z" fill="#C39673"/>
<path id="Vector (Stroke)_10" fill-rule="evenodd" clip-rule="evenodd" d="M45.8258 57.6294L46.0636 59.2756C46.0677 59.3102 46.0808 59.3435 46.1021 59.3718C46.1223 59.3988 46.149 59.4201 46.1795 59.4339L47.668 60.1705L46.161 60.914L46.1496 60.9219C46.1123 60.948 46.0845 60.9853 46.07 61.0281L46.0647 61.0438L45.8241 62.6988L44.6379 61.4798L44.6068 61.4656C44.58 61.4533 44.5509 61.447 44.5214 61.447C44.504 61.447 44.4866 61.4492 44.4698 61.4536L42.8387 61.7325L43.6147 60.2568L43.6157 60.2548C43.6305 60.2259 43.6379 60.1942 43.6379 60.1625C43.6379 60.1309 43.6305 60.0992 43.6157 60.0702L42.8389 58.5929L44.4665 58.8727C44.4843 58.8778 44.5028 58.8804 44.5214 58.8804C44.5567 58.8804 44.5914 58.8711 44.6221 58.8534L44.6439 58.8408L45.8258 57.6294ZM45.8875 57.0831C45.9247 57.0732 45.964 57.074 46.001 57.0857C46.0378 57.0973 46.0705 57.1192 46.0954 57.1488C46.1199 57.178 46.1356 57.2135 46.1409 57.2511L46.414 59.1416L48.1327 59.9922L48.1381 59.9953C48.1688 60.0133 48.1942 60.0389 48.2119 60.0696C48.2294 60.1002 48.2388 60.135 48.2388 60.1708C48.2388 60.2065 48.2294 60.2413 48.2119 60.2719C48.1942 60.3026 48.1688 60.3282 48.1381 60.3462L48.1326 60.3494L46.4121 61.1982L46.1309 63.1325L46.1058 63.1682C46.0871 63.1948 46.0622 63.2166 46.0332 63.2316C46.0042 63.2467 45.9721 63.2545 45.9396 63.2545C45.9071 63.2545 45.875 63.2467 45.846 63.2316C45.8236 63.22 45.8037 63.2044 45.7871 63.1856L44.4639 61.8259L42.569 62.1499L42.5639 62.1505C42.5272 62.1546 42.4902 62.1487 42.4567 62.1335C42.4228 62.118 42.3943 62.0937 42.3736 62.0637C42.3528 62.0335 42.3406 61.998 42.3383 61.9612C42.336 61.9249 42.3435 61.8882 42.3607 61.855L42.3612 61.8542L43.2508 60.1625L42.3607 58.47C42.3435 58.4368 42.336 58.4001 42.3383 58.3639C42.3406 58.327 42.3528 58.2916 42.3736 58.2613C42.3944 58.2312 42.423 58.207 42.4567 58.1916C42.49 58.1764 42.527 58.1704 42.5639 58.1745L42.5691 58.1751L44.4641 58.501L45.7931 57.1389C45.8189 57.112 45.8515 57.0927 45.8875 57.0831Z" fill="#C39673"/>
<path id="Vector_7" d="M65.434 56.1349L64.0414 54.7039C64.0387 54.7023 64.0355 54.7014 64.0323 54.7014C64.0291 54.7014 64.0259 54.7023 64.0231 54.7039L62.0541 55.0406C62.0505 55.041 62.0468 55.0404 62.0435 55.0389C62.0402 55.0374 62.0374 55.035 62.0353 55.032C62.0332 55.029 62.032 55.0255 62.0318 55.0218C62.0316 55.0182 62.0323 55.0145 62.034 55.0113L62.9636 53.2436C62.9654 53.2409 62.9664 53.2377 62.9664 53.2344C62.9664 53.2312 62.9654 53.228 62.9636 53.2253L62.0358 51.4576C62.0341 51.4543 62.0334 51.4507 62.0336 51.4471C62.0338 51.4434 62.035 51.4399 62.0371 51.4369C62.0392 51.4339 62.042 51.4315 62.0453 51.43C62.0487 51.4285 62.0523 51.4279 62.0559 51.4283L64.025 51.7668C64.0278 51.7682 64.031 51.7688 64.0341 51.7688C64.0373 51.7688 64.0404 51.7682 64.0433 51.7668L65.4377 50.3377C65.44 50.3346 65.4432 50.3323 65.4469 50.3312C65.4505 50.33 65.4544 50.3301 65.4581 50.3313C65.4617 50.3325 65.4649 50.3348 65.4672 50.338C65.4694 50.3411 65.4706 50.3448 65.4706 50.3487L65.7579 52.325C65.7579 52.325 65.7579 52.336 65.7689 52.3396L67.5586 53.2253C67.5616 53.2271 67.5641 53.2296 67.5659 53.2327C67.5676 53.2357 67.5685 53.2392 67.5685 53.2427C67.5685 53.2462 67.5676 53.2497 67.5659 53.2527C67.5641 53.2558 67.5616 53.2583 67.5586 53.2601L65.767 54.1439C65.7641 54.1452 65.7615 54.1472 65.7596 54.1498C65.7577 54.1523 65.7565 54.1554 65.7561 54.1586L65.4688 56.1349C65.467 56.1379 65.4645 56.1404 65.4614 56.1422C65.4584 56.1439 65.4549 56.1449 65.4514 56.1449C65.4479 56.1449 65.4444 56.1439 65.4414 56.1422C65.4383 56.1404 65.4358 56.1379 65.434 56.1349Z" fill="#C39673"/>
<path id="Vector (Stroke)_11" fill-rule="evenodd" clip-rule="evenodd" d="M65.3373 50.7027L64.1506 51.919L64.1196 51.9332C64.0927 51.9456 64.0635 51.9518 64.0342 51.9518C64.0168 51.9518 63.9995 51.9496 63.9826 51.9452L62.3513 51.6647L63.1238 53.1364C63.1407 53.1664 63.1495 53.2002 63.1495 53.2344C63.1495 53.2687 63.1407 53.3025 63.1237 53.3326L62.3497 54.8044L63.9776 54.526C63.9954 54.521 64.0138 54.5184 64.0324 54.5184C64.0676 54.5184 64.1024 54.5277 64.1331 54.5454L64.155 54.5581L65.3367 55.7723L65.575 54.1333C65.5796 54.0995 65.5928 54.0673 65.6133 54.04C65.6329 54.0139 65.6585 53.9929 65.6883 53.9788L67.1808 53.2425L65.6936 52.5065C65.6391 52.4826 65.6069 52.4397 65.5911 52.4029C65.5832 52.3842 65.5794 52.3674 65.5774 52.3551C65.577 52.3523 65.5766 52.3496 65.5763 52.347L65.3373 50.7027ZM65.3924 50.1565C65.4327 50.1439 65.476 50.1443 65.5161 50.1577C65.556 50.171 65.5909 50.1965 65.6157 50.231C65.6367 50.26 65.6492 50.2936 65.6527 50.3284L65.9268 52.2135L67.6455 53.0641L67.6509 53.0673C67.6817 53.0852 67.7071 53.1108 67.7247 53.1415C67.7422 53.1721 67.7517 53.2069 67.7517 53.2427C67.7517 53.2784 67.7422 53.3133 67.7247 53.3438C67.7071 53.3745 67.6817 53.4002 67.6509 53.4181L67.6454 53.4213L65.9249 54.2702L65.6449 56.1964L65.6269 56.2271C65.6092 56.2575 65.5837 56.283 65.5527 56.3009C65.5217 56.3186 65.4868 56.3278 65.4515 56.3278C65.4162 56.3278 65.3813 56.3186 65.3504 56.3009C65.3293 56.2888 65.3108 56.2731 65.2955 56.2548L63.9749 54.8978L62.08 55.2218L62.0749 55.2224C62.0384 55.2265 62.0013 55.2207 61.9677 55.2054C61.934 55.19 61.9053 55.1658 61.8846 55.1357C61.8638 55.1054 61.8515 55.07 61.8493 55.0331C61.847 54.9969 61.8545 54.9601 61.8717 54.927L61.8722 54.9261L62.7618 53.2344L61.8736 51.5419C61.8563 51.5088 61.8489 51.472 61.8511 51.4358C61.8533 51.3997 61.8652 51.3641 61.8864 51.3332C61.9074 51.3028 61.9361 51.2787 61.9695 51.2635C62.003 51.2482 62.04 51.2423 62.0767 51.2465L62.0819 51.2471L63.977 51.5729L65.303 50.2138C65.327 50.1872 65.3578 50.1673 65.3924 50.1565Z" fill="#C39673"/>
<path id="Vector_8" d="M14.198 57.5988L11.4275 48.9799L15.1239 47.7923C15.825 47.5386 16.5962 47.5608 17.2814 47.8545C17.5809 47.9709 17.851 48.1519 18.0724 48.3848C18.2938 48.6176 18.4611 48.8964 18.5624 49.2013C18.6347 49.4217 18.673 49.6519 18.6758 49.8839C18.681 50.0845 18.6538 50.2847 18.5953 50.4768C18.5454 50.6299 18.4843 50.7792 18.4123 50.9233C18.3609 51.0248 18.2996 51.1211 18.2293 51.2106L18.147 51.3021L18.33 51.3222C18.469 51.3506 18.606 51.3885 18.7399 51.4356C18.9345 51.4977 19.1217 51.5812 19.298 51.6845C19.4967 51.8098 19.6735 51.9668 19.8214 52.1493C20.0046 52.3632 20.1422 52.6123 20.2258 52.8813C20.3353 53.2197 20.3696 53.578 20.3263 53.931C20.283 54.2841 20.1631 54.6234 19.9751 54.9253C19.5579 55.62 18.8907 56.1287 18.1104 56.3472L14.198 57.5988ZM13.7734 49.9241L14.3682 51.776L16.0865 51.227C16.3556 51.1563 16.5858 50.982 16.727 50.7421C16.7886 50.6266 16.8248 50.4992 16.833 50.3685C16.8412 50.2378 16.8213 50.1068 16.7745 49.9845C16.7405 49.8581 16.6802 49.7403 16.5976 49.6388C16.515 49.5373 16.4119 49.4543 16.2951 49.3953C16.0403 49.2833 15.7518 49.2761 15.4918 49.3751L13.7734 49.9241ZM17.5193 54.8338C17.8314 54.7425 18.0945 54.5313 18.2513 54.2464C18.3267 54.1112 18.3728 53.9616 18.3863 53.8074C18.3999 53.6532 18.3807 53.4979 18.33 53.3516C18.2861 53.2024 18.211 53.0643 18.1098 52.9463C18.0085 52.8283 17.8834 52.7332 17.7426 52.6672C17.5971 52.5966 17.4389 52.5557 17.2774 52.5469C17.1159 52.5381 16.9543 52.5616 16.802 52.6159L14.8366 53.2473L15.5485 55.4651L17.5193 54.8338Z" fill="white"/>
<path id="Vector_9" d="M28.6837 51.1117L29.2181 52.7696L22.7511 54.8502L19.9806 46.2313L26.3213 44.1927L26.8556 45.8562L22.3668 47.3L22.9158 49.0256L26.4201 47.8984L26.9526 49.5581L23.4483 50.6835L24.0631 52.5958L28.6837 51.1117Z" fill="white"/>
<path id="Vector_10" d="M33.2162 47.9312C32.8207 47.8432 32.415 47.8093 32.0103 47.8306C31.5528 47.8477 31.0911 47.8422 30.6251 47.8141C30.1535 47.786 29.6986 47.6298 29.3093 47.3621C28.876 47.0581 28.5617 46.6131 28.42 46.1031C28.3091 45.7624 28.2754 45.4012 28.3213 45.0458C28.3672 44.6904 28.4915 44.3496 28.6853 44.0481C29.0867 43.3759 29.7339 42.8959 30.6269 42.608C30.9711 42.4972 31.3275 42.4284 31.6882 42.403C31.9885 42.3778 32.2906 42.3876 32.5886 42.4323C32.8124 42.4691 33.0332 42.5223 33.2492 42.5915C33.4016 42.6336 33.5479 42.6951 33.6847 42.7745L33.8311 42.8587L33.0991 44.3867C33.0332 44.3464 32.9436 44.2988 32.8301 44.2439C32.6217 44.1654 32.4039 44.1143 32.1823 44.0921C31.876 44.0445 31.5629 44.0683 31.2673 44.1616C30.9554 44.2473 30.6847 44.4421 30.5043 44.7106C30.4289 44.8203 30.3799 44.9458 30.3608 45.0775C30.3418 45.2092 30.3533 45.3435 30.3945 45.47C30.4436 45.613 30.531 45.7397 30.6472 45.8365C30.7633 45.9333 30.9038 45.9964 31.0532 46.019C31.4469 46.1033 31.8496 46.1371 32.2518 46.1196C32.7057 46.1062 33.1674 46.1123 33.6371 46.1379C34.1109 46.1647 34.5683 46.3204 34.9601 46.5881C35.392 46.8943 35.7059 47.3393 35.8495 47.8489C35.9789 48.2154 36.0243 48.6062 35.9825 48.9926C35.9407 49.379 35.8127 49.7511 35.6079 50.0814C35.1932 50.7707 34.4758 51.2794 33.4559 51.6076C33.0643 51.7355 32.6577 51.8118 32.2464 51.8345C31.899 51.8603 31.5498 51.8425 31.207 51.7814C30.9451 51.7294 30.6871 51.6597 30.4347 51.5728C30.2568 51.5152 30.0856 51.4385 29.9242 51.3441L29.7412 51.2398L30.4969 49.7758C30.5738 49.8216 30.6799 49.8801 30.8153 49.9497C31.077 50.0496 31.3509 50.1142 31.6297 50.1418C32.0278 50.2008 32.4341 50.1677 32.8173 50.0448C33.1979 49.9465 33.5315 49.7171 33.7597 49.397C33.8496 49.2644 33.9073 49.1126 33.9283 48.9538C33.9492 48.795 33.9329 48.6335 33.8805 48.4821C33.8312 48.338 33.7431 48.2103 33.6259 48.1132C33.5087 48.016 33.3669 47.953 33.2162 47.9312Z" fill="white"/>
<path id="Vector_11" d="M41.2022 39.4075L41.7384 41.0728L39.279 41.8633L41.5152 48.817L39.6706 49.4099L37.4344 42.4562L34.9695 43.2485L34.4352 41.5833L41.2022 39.4075Z" fill="white"/>
<path id="Vector_12" d="M48.7031 36.9956C49.1028 36.8529 49.5268 36.7903 49.9507 36.8117C50.3746 36.8331 50.7901 36.9379 51.1735 37.1201C51.5402 37.2906 51.8667 37.5368 52.1316 37.8424C52.3965 38.1479 52.5938 38.5061 52.7106 38.8933C52.8429 39.2764 52.8927 39.6831 52.8568 40.0867C52.8208 40.4904 52.6999 40.8819 52.502 41.2356C52.2967 41.6076 52.0197 41.9353 51.6871 42.1998C51.3545 42.4642 50.9728 42.6602 50.5641 42.7764L48.7854 43.3492L49.7004 46.1801L47.8503 46.7748L45.078 38.1558L48.7031 36.9956ZM47.4587 39.2336L48.2493 41.6912L49.9694 41.1423C50.3147 41.0409 50.6056 40.8066 50.7782 40.4908C50.8617 40.3413 50.9127 40.1758 50.9278 40.0052C50.9429 39.8346 50.9219 39.6627 50.8661 39.5008C50.8168 39.3363 50.7335 39.184 50.6216 39.0538C50.5097 38.9236 50.3717 38.8184 50.2164 38.7451C50.0563 38.6664 49.882 38.6204 49.7039 38.6097C49.5258 38.599 49.3473 38.6239 49.1789 38.6828L47.4587 39.2336Z" fill="white"/>
<path id="Vector_13" d="M53.4427 35.4731L57.26 34.2452C57.6457 34.1079 58.0551 34.0496 58.4638 34.0738C58.8725 34.098 59.2721 34.2042 59.6389 34.3862C59.9936 34.5572 60.3087 34.8003 60.5642 35.1C60.8197 35.3996 61.01 35.7492 61.1229 36.1264C61.232 36.4548 61.2828 36.7998 61.273 37.1457C61.2684 37.4353 61.2183 37.7224 61.1248 37.9966C61.0453 38.2112 60.9467 38.4182 60.8302 38.6151C60.7479 38.7604 60.6456 38.8935 60.5264 39.0104L60.3965 39.1458L63.2914 41.8157L61.3188 42.4488L58.691 39.9656L57.0916 40.4798L58.0615 43.4974L56.2114 44.0921L53.4427 35.4731ZM58.68 35.991C58.5349 35.9176 58.3764 35.8744 58.2141 35.864C58.0518 35.8536 57.889 35.8763 57.7358 35.9306L55.829 36.5436L56.561 38.8201L58.4659 38.2089C58.621 38.1639 58.7656 38.0884 58.8913 37.9869C59.017 37.8855 59.1212 37.76 59.1979 37.6178C59.2735 37.482 59.3197 37.3319 59.3336 37.1771C59.3475 37.0223 59.3287 36.8664 59.2784 36.7193C59.2335 36.563 59.1569 36.4177 59.0533 36.2924C58.9497 36.1671 58.8214 36.0645 58.6763 35.991H58.68Z" fill="white"/>
<path id="Vector_14" d="M62.1786 32.6715L64.0305 32.075L66.801 40.6939L64.9491 41.2905L62.1786 32.6715Z" fill="white"/>
<path id="Vector_15" d="M71.7164 29.5936C72.1014 29.5744 72.4871 29.6102 72.8619 29.6998C73.1534 29.7758 73.44 29.8693 73.7202 29.9797C73.9207 30.055 74.1127 30.1513 74.2929 30.267L74.4906 30.4025L73.6946 31.9524L73.5518 31.8481C73.4308 31.77 73.3042 31.7009 73.173 31.6413C72.9824 31.5483 72.7825 31.4759 72.5765 31.4254C72.3224 31.3697 72.0625 31.3445 71.8024 31.3504C71.4961 31.3493 71.1916 31.3969 70.9003 31.4913C70.5226 31.602 70.1717 31.7891 69.8692 32.0409C69.5667 32.2927 69.3191 32.6039 69.1417 32.9552C68.9604 33.304 68.8524 33.6863 68.8244 34.0784C68.7964 34.4705 68.849 34.8642 68.9788 35.2353C69.0898 35.6129 69.2769 35.9637 69.5287 36.2662C69.7805 36.5686 70.0916 36.8163 70.4428 36.9939C70.7916 37.1753 71.1738 37.2833 71.566 37.3113C71.9581 37.3393 72.3518 37.2867 72.7229 37.1567C73.0276 37.0604 73.3162 36.9192 73.5793 36.7377C73.8065 36.5877 74.0127 36.408 74.1923 36.2033C74.333 36.0398 74.4614 35.8661 74.5766 35.6836C74.6637 35.5554 74.7349 35.4172 74.7889 35.2719L74.8437 35.1145L76.3333 35.9288C76.3088 36.009 76.2801 36.0878 76.2473 36.1649C76.1564 36.3538 76.0544 36.5371 75.9417 36.7139C75.7796 36.9837 75.5921 37.2373 75.3818 37.4715C75.1174 37.7492 74.8214 37.9948 74.4997 38.2034C74.1173 38.4649 73.6987 38.669 73.2572 38.8091C72.6473 39.0205 72.0011 39.1072 71.357 39.0641C70.7129 39.021 70.0841 38.8491 69.5077 38.5584C68.9416 38.2923 68.4374 37.9106 68.0277 37.4378C67.618 36.9651 67.3118 36.4118 67.1288 35.8136C66.9296 35.222 66.8565 34.5953 66.9141 33.9738C66.9718 33.3523 67.159 32.7497 67.4637 32.2049C67.7641 31.6344 68.1759 31.1299 68.6747 30.7213C69.1735 30.3126 69.7492 30.0082 70.3678 29.826C70.8041 29.6856 71.2582 29.6073 71.7164 29.5936Z" fill="white"/>
<path id="Vector_16" d="M84.2329 33.2517L84.7654 34.9114L78.2985 36.9902L75.528 28.3712L81.8687 26.3327L82.403 27.9979L77.9142 29.4418L78.4632 31.1655L81.9675 30.0401L82.5 31.6981L78.9957 32.8253L79.6105 34.7357L84.2329 33.2517Z" fill="white"/>
<path id="Vector_17" d="M34.9216 69.3781L32.9471 72.9666L32.1786 72.5439L33.6187 69.9307L33.0021 69.5904L33.271 69.1036C33.3822 69.1493 33.4993 69.1789 33.6187 69.1914C33.7132 69.2038 33.8089 69.2007 33.9024 69.1823C33.9713 69.1673 34.0391 69.1477 34.1055 69.1237C34.1529 69.1061 34.1983 69.0834 34.2409 69.056L34.2848 69.0249L34.9216 69.3781Z" fill="white"/>
<path id="Vector_18" d="M36.856 74.22C36.6451 74.3311 36.412 74.3934 36.1738 74.4023C35.9356 74.4112 35.6984 74.3664 35.4799 74.2713C35.2598 74.1788 35.0632 74.0381 34.9049 73.8594C34.7465 73.6808 34.6303 73.4688 34.5649 73.2392C34.409 72.698 34.4599 72.1181 34.7077 71.6124C34.9055 71.0866 35.2907 70.6525 35.7892 70.3936C36.0002 70.2828 36.2334 70.2208 36.4716 70.2123C36.7098 70.2037 36.9469 70.2488 37.1653 70.3442C37.3852 70.4365 37.5816 70.5769 37.74 70.7552C37.8984 70.9336 38.0146 71.1452 38.0802 71.3745C38.2342 71.9153 38.1833 72.4938 37.9375 72.9995C37.7395 73.5255 37.3544 73.9601 36.856 74.22ZM35.3646 72.9757C35.3837 73.0982 35.4328 73.2141 35.5075 73.3131C35.5822 73.412 35.6802 73.491 35.7928 73.5429C35.9081 73.5884 36.0327 73.605 36.1558 73.5913C36.2789 73.5776 36.3968 73.534 36.4992 73.4642C36.7917 73.2681 37.0136 72.9833 37.1323 72.6518C37.2912 72.3385 37.3456 71.9826 37.2879 71.6362C37.2682 71.5138 37.2189 71.3982 37.1442 71.2993C37.0696 71.2005 36.9719 71.1213 36.8597 71.0689C36.7441 71.0234 36.6192 71.0068 36.4958 71.0205C36.3724 71.0342 36.2542 71.0778 36.1515 71.1476C35.859 71.3437 35.6371 71.6285 35.5183 71.9601C35.3609 72.2738 35.307 72.6294 35.3646 72.9757Z" fill="white"/>
<path id="Vector_19" d="M41.0523 75.5577C40.8573 75.6945 40.6338 75.7853 40.3986 75.8233C40.1634 75.8613 39.9227 75.8456 39.6945 75.7773C39.4648 75.7122 39.2527 75.5961 39.074 75.4377C38.8953 75.2793 38.7546 75.0826 38.6624 74.8624C38.4424 74.3448 38.4209 73.7643 38.602 73.2319C38.7318 72.6865 39.0574 72.2078 39.517 71.8869C39.7131 71.7516 39.9369 71.6619 40.1722 71.6242C40.4074 71.5865 40.6481 71.6019 40.8766 71.6691C41.1059 71.7347 41.3176 71.851 41.4959 72.0094C41.6742 72.1677 41.8147 72.3641 41.9069 72.5841C42.128 73.1014 42.1495 73.6823 41.9673 74.2146C41.8384 74.7598 41.5126 75.2382 41.0523 75.5577ZM39.4182 74.5073C39.4527 74.6266 39.516 74.7355 39.6025 74.8245C39.6889 74.9135 39.7959 74.9799 39.9141 75.0179C40.0342 75.0489 40.1601 75.0499 40.2807 75.0209C40.4013 74.9918 40.513 74.9336 40.6058 74.8514C40.8707 74.6203 41.0547 74.3106 41.131 73.9675C41.2493 73.637 41.259 73.2773 41.1584 72.9409C41.1245 72.8217 41.0617 72.7127 40.9755 72.6236C40.8893 72.5346 40.7824 72.4682 40.6644 72.4304C40.5443 72.3994 40.4184 72.3984 40.2977 72.4274C40.1771 72.4564 40.0655 72.5146 39.9727 72.5969C39.7074 72.8272 39.5228 73.1362 39.4456 73.4789C39.3277 73.8101 39.3181 74.1703 39.4182 74.5073Z" fill="white"/>
<path id="Vector_20" d="M45.4606 74.3005C45.3595 74.3838 45.2424 74.4455 45.1165 74.4817C44.9906 74.5179 44.8586 74.5278 44.7287 74.5109C44.5985 74.4989 44.4721 74.4601 44.3576 74.3972C44.243 74.3342 44.1426 74.2484 44.0626 74.145C43.9803 74.049 43.9187 73.937 43.8819 73.816C43.845 73.6951 43.8337 73.5678 43.8485 73.4423C43.8622 73.3166 43.9018 73.1951 43.9647 73.0855C44.0277 72.9759 44.1128 72.8806 44.2144 72.8054C44.3158 72.7225 44.4329 72.6611 44.5588 72.6249C44.6846 72.5887 44.8165 72.5785 44.9464 72.595C45.0764 72.608 45.2024 72.6471 45.3168 72.71C45.4313 72.7729 45.5318 72.8583 45.6125 72.961C45.6943 73.0573 45.7556 73.1693 45.7927 73.2901C45.8298 73.4109 45.842 73.538 45.8284 73.6637C45.8137 73.7893 45.7734 73.9105 45.7102 74.02C45.6469 74.1295 45.562 74.2249 45.4606 74.3005ZM47.06 72.9189L47.792 73.0012L44.7707 76.7837L44.0388 76.7014L47.06 72.9189ZM44.5145 73.8082C44.548 73.8506 44.5898 73.8856 44.6373 73.9111C44.6849 73.9366 44.7371 73.952 44.7909 73.9565C44.8447 73.9649 44.8998 73.9619 44.9524 73.9477C45.0051 73.9335 45.0541 73.9085 45.0965 73.8741C45.1389 73.8403 45.1739 73.7982 45.1994 73.7504C45.2249 73.7026 45.2403 73.65 45.2447 73.596C45.2526 73.5424 45.2494 73.4878 45.2352 73.4355C45.221 73.3832 45.1962 73.3344 45.1623 73.2922C45.129 73.2492 45.087 73.2137 45.0391 73.1879C44.9912 73.162 44.9384 73.1465 44.8842 73.1421C44.8303 73.1343 44.7755 73.1376 44.7229 73.1517C44.6703 73.1659 44.6212 73.1906 44.5786 73.2245C44.5362 73.2583 44.5012 73.3004 44.4757 73.3482C44.4502 73.3961 44.4348 73.4486 44.4304 73.5026C44.4229 73.5566 44.4265 73.6116 44.441 73.6641C44.4554 73.7167 44.4805 73.7657 44.5145 73.8082ZM46.3664 75.4058C46.4674 75.3221 46.5845 75.2601 46.7104 75.2236C46.8363 75.1871 46.9684 75.1769 47.0984 75.1935C47.2284 75.2062 47.3545 75.2452 47.469 75.3081C47.5835 75.371 47.6841 75.4565 47.7645 75.5595C47.8468 75.6555 47.9083 75.7675 47.9452 75.8884C47.982 76.0093 47.9934 76.1366 47.9786 76.2622C47.9647 76.3875 47.9249 76.5086 47.862 76.6179C47.799 76.7272 47.7141 76.8223 47.6126 76.8972C47.5116 76.9807 47.3945 77.0426 47.2686 77.0791C47.1427 77.1157 47.0107 77.126 46.8807 77.1094C46.7506 77.0969 46.6244 77.058 46.5099 76.9951C46.3953 76.9322 46.2949 76.8466 46.2146 76.7435C46.1328 76.6471 46.0715 76.5351 46.0343 76.4143C45.9972 76.2935 45.9851 76.1664 45.9986 76.0408C46.0134 75.9154 46.0537 75.7945 46.1169 75.6853C46.1802 75.5761 46.2651 75.481 46.3664 75.4058ZM47.3143 75.8944C47.2802 75.8522 47.238 75.8172 47.1903 75.7915C47.1426 75.7657 47.0902 75.7497 47.0362 75.7443C46.9822 75.7367 46.9272 75.7403 46.8747 75.7547C46.8221 75.7692 46.7731 75.7943 46.7306 75.8285C46.688 75.8621 46.6529 75.9042 46.6274 75.9521C46.6019 75.9999 46.5866 76.0526 46.5824 76.1066C46.5761 76.1601 46.5808 76.2143 46.5962 76.2659C46.6116 76.3176 46.6374 76.3655 46.672 76.4067C46.7054 76.4497 46.7474 76.4852 46.7953 76.5111C46.8432 76.5369 46.8959 76.5525 46.9502 76.5568C47.0038 76.5643 47.0583 76.5608 47.1105 76.5467C47.1627 76.5325 47.2115 76.508 47.254 76.4744C47.2968 76.4409 47.3322 76.3989 47.358 76.351C47.3838 76.3032 47.3995 76.2505 47.404 76.1963C47.41 76.1425 47.4052 76.0881 47.3898 76.0362C47.3744 75.9844 47.3487 75.9361 47.3143 75.8944Z" fill="white"/>
<path id="Vector_21" d="M53.8524 74.6994L53.9531 76.2183C53.9384 76.2384 53.9165 76.2677 53.8854 76.3061C53.8209 76.3793 53.7518 76.4484 53.6786 76.5129C53.5709 76.6095 53.4558 76.6976 53.3346 76.7764C53.1817 76.868 53.019 76.9423 52.8496 76.9978C52.648 77.0692 52.4373 77.1117 52.2238 77.1241C51.9324 77.1503 51.6387 77.1177 51.3601 77.0281C51.0816 76.9385 50.8239 76.7938 50.6025 76.6026C50.3836 76.4237 50.2044 76.2011 50.0765 75.949C49.9486 75.6969 49.8747 75.4209 49.8595 75.1386C49.8377 74.8565 49.8753 74.573 49.9699 74.3064C50.0645 74.0397 50.2139 73.7958 50.4085 73.5905C50.6028 73.3714 50.8391 73.1937 51.1035 73.068C51.3679 72.9422 51.6549 72.871 51.9475 72.8585C52.1547 72.8434 52.363 72.8581 52.566 72.9024C52.7375 72.9357 52.9033 72.9937 53.0582 73.0744C53.178 73.1397 53.2935 73.2124 53.4041 73.2922C53.4845 73.3447 53.5588 73.4061 53.6255 73.4752L53.6969 73.5557L53.1754 74.1486L53.1241 74.0882C53.0801 74.0401 53.0324 73.9954 52.9814 73.9546C52.9078 73.8929 52.8281 73.8389 52.7435 73.7936C52.6374 73.7417 52.5256 73.7024 52.4104 73.6765C52.2761 73.6418 52.1371 73.6288 51.9987 73.6381C51.8208 73.6451 51.6461 73.6884 51.4856 73.7656C51.3251 73.8427 51.1821 73.9519 51.0654 74.0864C50.9473 74.2199 50.8577 74.376 50.802 74.5453C50.7463 74.7145 50.7257 74.8934 50.7415 75.0709C50.7488 75.2488 50.7924 75.4233 50.8695 75.5838C50.9466 75.7442 51.0556 75.8873 51.1899 76.0042C51.3233 76.1222 51.4795 76.2117 51.6488 76.2671C51.8181 76.3225 51.997 76.3426 52.1744 76.3262C52.3445 76.3179 52.5118 76.2795 52.6685 76.2128C52.7808 76.17 52.8848 76.1081 52.9759 76.0298L53.0582 75.9493L53.0216 75.4003L52.2897 75.4479L52.2476 74.8056L53.8524 74.6994Z" fill="white"/>
<path id="Vector_22" d="M57.4502 75.2832C57.5176 75.1753 57.563 75.055 57.5838 74.9293C57.6045 74.8037 57.6002 74.6752 57.571 74.5513L57.0787 72.1724L57.937 71.9894L58.431 74.3683C58.4838 74.595 58.4893 74.8301 58.4471 75.059C58.4049 75.2879 58.316 75.5057 58.1858 75.6986C58.0559 75.8957 57.8871 76.0642 57.6898 76.1938C57.4925 76.3234 57.2709 76.4115 57.0385 76.4526C56.8094 76.5076 56.5715 76.5153 56.3393 76.4754C56.1071 76.4354 55.8855 76.3486 55.688 76.2202C55.4921 76.0944 55.3242 75.9298 55.1945 75.7365C55.0649 75.5433 54.9762 75.3255 54.934 75.0966L54.4418 72.7177L55.3 72.5347L55.7941 74.9136C55.8164 75.0382 55.8634 75.157 55.9322 75.2632C56.001 75.3694 56.0903 75.4608 56.1949 75.5321C56.2927 75.6023 56.4042 75.6511 56.5221 75.6754C56.64 75.6997 56.7617 75.6988 56.8792 75.673C56.9964 75.6516 57.1077 75.6059 57.2061 75.5387C57.3044 75.4716 57.3876 75.3846 57.4502 75.2832Z" fill="white"/>
<path id="Vector_23" d="M60.2977 74.5238L60.2794 75.5522L59.3918 75.856L59.5876 71.4642L60.4715 71.1604L63.328 74.5165L62.4405 74.8203L61.7945 74.0206L60.2977 74.5238ZM60.3635 72.273L60.3269 73.7095L61.2712 73.3856L60.3635 72.273Z" fill="white"/>
<path id="Vector_24" d="M62.3414 70.4449L63.9701 69.6434C64.1342 69.556 64.3142 69.5027 64.4995 69.4867C64.6847 69.4706 64.8712 69.4922 65.0479 69.5501C65.2176 69.6041 65.3742 69.6926 65.5081 69.8101C65.6419 69.9275 65.75 70.0714 65.8256 70.2326C65.8964 70.373 65.9416 70.5248 65.9592 70.681C65.9778 70.8105 65.9747 70.9422 65.95 71.0707C65.9283 71.1726 65.8977 71.2724 65.8585 71.369C65.8306 71.4388 65.7937 71.5046 65.7488 71.5648L65.6993 71.6343L67.1633 72.6408L66.3215 73.0544L64.982 72.1138L64.2994 72.4487L64.9326 73.7296L64.1421 74.1176L62.3414 70.4449ZM64.7203 70.3333C64.6507 70.3096 64.5769 70.3005 64.5035 70.3065C64.4302 70.3124 64.3589 70.3334 64.294 70.368L63.4815 70.767L63.9591 71.7405L64.7716 71.3416C64.8387 71.3113 64.899 71.2678 64.949 71.2138C64.999 71.1597 65.0376 71.0961 65.0625 71.0268C65.0873 70.9612 65.098 70.8911 65.0939 70.8212C65.0898 70.7512 65.071 70.6828 65.0387 70.6206C65.0084 70.5533 64.9644 70.493 64.9096 70.4436C64.8548 70.3941 64.7904 70.3566 64.7203 70.3333Z" fill="white"/>
<path id="Vector_25" d="M68.2814 70.8218L68.5193 71.8228L67.7361 72.337L66.8303 68.0257L67.6099 67.5133L71.2112 70.0514L70.4279 70.5657L69.6027 69.9526L68.2814 70.8218ZM67.7855 68.6259L68.1076 70.0258L68.9402 69.4768L67.7855 68.6259Z" fill="white"/>
<path id="Vector_26" d="M72.0036 63.9852L74.6972 67.076L74.1226 67.5756L70.8873 66.9369L72.5983 68.9004L71.934 69.4805L69.2404 66.3879L69.8168 65.8865L73.0539 66.527L71.3411 64.5617L72.0036 63.9852Z" fill="white"/>
<path id="Vector_27" d="M74.4668 61.2679L75.056 61.7967L74.2747 62.6659L76.7359 64.8746L76.1503 65.5279L73.6873 63.3192L72.9041 64.1902L72.313 63.6614L74.4668 61.2679Z" fill="white"/>
<path id="Vector_28" d="M79.2447 60.3199L79.887 60.7792L78.0936 63.2789L74.7614 60.9L76.5181 58.4479L77.1622 58.909L75.9179 60.6438L76.584 61.1214L77.5557 59.7672L78.198 60.2266L77.2318 61.5844L77.9637 62.1132L79.2447 60.3199Z" fill="white"/>
<path id="Vector_29" d="M81.2573 56.7607L81.9472 57.1431L80.4595 59.835L76.8728 57.8513L78.3367 55.2126L79.0284 55.595L77.9964 57.4634L78.7137 57.8605L79.5207 56.3965L80.2106 56.779L79.4054 58.2429L80.1996 58.6821L81.2573 56.7607Z" fill="white"/>
<path id="Vector_30" d="M17.9221 26.2466L21.6588 27.9375L21.2928 28.7372L18.5735 27.5056L18.2826 28.1479L17.7757 27.9174C17.8113 27.8028 17.8316 27.6841 17.8361 27.5642C17.8397 27.4692 17.8292 27.3743 17.8049 27.2824C17.784 27.215 17.7589 27.149 17.7299 27.0847C17.7093 27.0383 17.6828 26.9946 17.6512 26.9548L17.6165 26.9146L17.9221 26.2466Z" fill="white"/>
<path id="Vector_31" d="M22.987 24.4588C23.072 24.6814 23.106 24.9202 23.0867 25.1577C23.0674 25.3951 22.9952 25.6253 22.8754 25.8312C22.7572 26.038 22.594 26.2156 22.398 26.3508C22.2019 26.486 21.978 26.5755 21.7427 26.6126C21.1876 26.7032 20.6185 26.5852 20.1452 26.2814C19.6455 26.0238 19.2589 25.5903 19.06 25.0645C18.9753 24.8421 18.9415 24.6035 18.9611 24.3663C18.9807 24.1291 19.0533 23.8993 19.1735 23.6939C19.291 23.4867 19.4537 23.3088 19.6495 23.1732C19.8453 23.0376 20.0691 22.9479 20.3044 22.9107C20.859 22.8193 21.4277 22.9374 21.9001 23.2419C22.4001 23.4996 22.7872 23.933 22.987 24.4588ZM21.5762 25.7928C21.7006 25.7872 21.8218 25.7508 21.9288 25.687C22.0357 25.6231 22.1252 25.5337 22.1892 25.4268C22.2477 25.3176 22.2783 25.1957 22.2783 25.0718C22.2783 24.948 22.2477 24.826 22.1892 24.7168C22.0286 24.4039 21.7721 24.1506 21.4572 23.994C21.1639 23.8001 20.8166 23.7046 20.4654 23.7213C20.3408 23.7271 20.2194 23.7635 20.1122 23.8274C20.0049 23.8912 19.9151 23.9805 19.8506 24.0873C19.7921 24.1968 19.7615 24.3191 19.7615 24.4432C19.7615 24.5674 19.7921 24.6896 19.8506 24.7992C20.012 25.1115 20.2682 25.3645 20.5825 25.522C20.8763 25.7162 21.2245 25.8111 21.5762 25.7928Z" fill="white"/>
<path id="Vector_32" d="M25.3349 21.2162C25.3912 21.4476 25.395 21.6887 25.3459 21.9218C25.2968 22.1548 25.1961 22.3739 25.0512 22.563C24.9075 22.753 24.7232 22.9084 24.5117 23.018C24.3002 23.1275 24.0669 23.1884 23.8288 23.1961C23.2662 23.2155 22.7163 23.0265 22.2844 22.6655C21.823 22.3454 21.4969 21.8654 21.3694 21.3186C21.3128 21.0874 21.309 20.8464 21.3585 20.6135C21.4079 20.3806 21.5092 20.1619 21.6549 19.9736C21.798 19.7833 21.9819 19.6275 22.1931 19.5177C22.4043 19.4078 22.6375 19.3466 22.8754 19.3386C23.4376 19.3187 23.9872 19.5078 24.4181 19.8693C24.8793 20.1898 25.2059 20.6695 25.3349 21.2162ZM23.7666 22.3617C23.8901 22.3722 24.0143 22.3521 24.1282 22.3033C24.2421 22.2545 24.3423 22.1784 24.4199 22.0817C24.4923 21.9811 24.5387 21.8641 24.555 21.7412C24.5713 21.6182 24.5569 21.4932 24.5132 21.3772C24.3938 21.047 24.1719 20.7636 23.88 20.5684C23.6138 20.3386 23.281 20.2001 22.9303 20.1731C22.8067 20.1621 22.6822 20.1817 22.568 20.2302C22.4537 20.2787 22.3532 20.3546 22.2752 20.4512C22.2029 20.552 22.1566 20.6689 22.1403 20.7918C22.124 20.9147 22.1383 21.0397 22.1819 21.1558C22.3015 21.4869 22.524 21.771 22.8169 21.9664C23.0831 22.1962 23.4159 22.3347 23.7666 22.3617Z" fill="white"/>
<path id="Vector_33" d="M26.4749 17.0202C26.4718 17.1512 26.4422 17.2802 26.3877 17.3994C26.3333 17.5186 26.2553 17.6256 26.1583 17.7137C26.0629 17.8035 25.9504 17.8732 25.8274 17.9184C25.7045 17.9637 25.5737 17.9837 25.4428 17.9772C25.316 17.9762 25.1908 17.9493 25.0747 17.8984C24.9586 17.8474 24.8541 17.7734 24.7676 17.6808C24.6821 17.5878 24.6166 17.4783 24.5751 17.359C24.5335 17.2397 24.5168 17.1132 24.526 16.9872C24.5289 16.8565 24.5585 16.7277 24.6129 16.6087C24.6674 16.4898 24.7455 16.3832 24.8426 16.2955C24.9375 16.2049 25.0499 16.1347 25.173 16.0891C25.296 16.0434 25.427 16.0234 25.5581 16.0302C25.6846 16.0314 25.8095 16.0583 25.9252 16.1092C26.041 16.1602 26.1452 16.2342 26.2315 16.3266C26.3168 16.4198 26.3824 16.5293 26.4242 16.6485C26.466 16.7677 26.4833 16.8941 26.4749 17.0202ZM25.483 17.4173C25.5374 17.4201 25.5917 17.4114 25.6424 17.3919C25.6932 17.3723 25.7393 17.3423 25.7777 17.3038C25.8188 17.2683 25.8521 17.2245 25.8755 17.1753C25.8988 17.1262 25.9116 17.0727 25.9131 17.0184C25.9157 16.9642 25.9071 16.9101 25.8879 16.8594C25.8687 16.8088 25.8393 16.7626 25.8015 16.7237C25.7653 16.6832 25.7215 16.6504 25.6724 16.6271C25.6234 16.6039 25.5702 16.5907 25.516 16.5883C25.4618 16.5862 25.4076 16.5951 25.357 16.6147C25.3063 16.6342 25.2602 16.6638 25.2214 16.7018C25.1806 16.7376 25.1475 16.7814 25.1242 16.8305C25.1009 16.8796 25.0879 16.9329 25.086 16.9872C25.0833 17.0414 25.0918 17.0955 25.111 17.1462C25.1302 17.1969 25.1597 17.2431 25.1976 17.2819C25.2334 17.3227 25.2773 17.3557 25.3263 17.379C25.3754 17.4023 25.4288 17.4153 25.483 17.4173ZM26.4694 14.9048L27.0074 14.407L27.904 19.1649L27.3679 19.6608L26.4694 14.9048ZM27.9022 17.0549C27.9049 16.9239 27.9343 16.7947 27.9888 16.6754C28.0432 16.5562 28.1215 16.4493 28.2188 16.3614C28.3136 16.2708 28.4261 16.2006 28.5492 16.1553C28.6723 16.11 28.8033 16.0904 28.9343 16.0979C29.0606 16.099 29.1854 16.1256 29.3012 16.1763C29.4169 16.2269 29.5212 16.3005 29.6077 16.3925C29.6931 16.4855 29.7586 16.595 29.8002 16.7143C29.8417 16.8336 29.8584 16.9601 29.8493 17.0861C29.847 17.2172 29.8178 17.3465 29.7633 17.4658C29.7088 17.5852 29.6303 17.692 29.5327 17.7796C29.4378 17.8702 29.3254 17.9404 29.2023 17.9857C29.0792 18.031 28.9481 18.0506 28.8172 18.0431C28.6909 18.042 28.5661 18.0154 28.4503 17.9647C28.3346 17.9141 28.2303 17.8405 28.1438 17.7485C28.0583 17.6555 27.9928 17.546 27.9513 17.4267C27.9098 17.3074 27.8931 17.1809 27.9022 17.0549ZM28.8904 16.656C28.8362 16.6534 28.7821 16.662 28.7315 16.6812C28.6808 16.7004 28.6346 16.7298 28.5958 16.7676C28.5549 16.8035 28.5219 16.8473 28.4986 16.8964C28.4753 16.9455 28.4623 16.9988 28.4603 17.0531C28.458 17.1074 28.4669 17.1616 28.4864 17.2122C28.5059 17.2629 28.5357 17.3091 28.5738 17.3477C28.6097 17.3886 28.6535 17.4216 28.7026 17.4449C28.7516 17.4682 28.805 17.4812 28.8593 17.4832C28.9134 17.4857 28.9675 17.4772 29.0182 17.458C29.0689 17.4388 29.1151 17.4093 29.1539 17.3715C29.1947 17.3357 29.2278 17.2919 29.2511 17.2428C29.2744 17.1937 29.2874 17.1404 29.2893 17.0861C29.2917 17.0318 29.2828 16.9776 29.2633 16.9269C29.2437 16.8762 29.214 16.8301 29.1759 16.7914C29.1403 16.7503 29.0965 16.717 29.0474 16.6937C28.9982 16.6703 28.9448 16.6575 28.8904 16.656Z" fill="white"/>
<path id="Vector_34" d="M33.4966 12.1983L34.3073 13.4793C34.3073 13.5024 34.3018 13.539 34.2908 13.5891C34.2695 13.6843 34.2414 13.7779 34.2066 13.869C34.1578 14.0061 34.0966 14.1384 34.0236 14.2643C33.934 14.418 33.8272 14.5611 33.7052 14.6907C33.5611 14.849 33.3961 14.9869 33.2148 15.1006C32.9711 15.2628 32.6973 15.3743 32.4096 15.4283C32.122 15.4824 31.8263 15.478 31.5404 15.4153C31.2628 15.3623 30.9992 15.2519 30.7667 15.0912C30.5341 14.9305 30.3377 14.723 30.1899 14.4821C30.0357 14.245 29.9328 13.9783 29.8877 13.6991C29.8427 13.4199 29.8565 13.1343 29.9282 12.8607C29.995 12.576 30.1184 12.3076 30.291 12.0716C30.4636 11.8355 30.6818 11.6365 30.9329 11.4865C31.1076 11.3742 31.2974 11.2874 31.4965 11.2285C31.6634 11.1779 31.8364 11.1502 32.0107 11.1461C32.1477 11.1465 32.2846 11.1551 32.4206 11.1717C32.5172 11.1816 32.6124 11.2025 32.7042 11.2339L32.8049 11.2705L32.6219 12.0391L32.5487 12.0098C32.4885 11.991 32.4274 11.9751 32.3657 11.9623C32.2717 11.9439 32.1761 11.9347 32.0802 11.9348C31.9626 11.9398 31.846 11.9582 31.7325 11.9897C31.5981 12.0241 31.4697 12.079 31.3519 12.1526C31.1991 12.2439 31.0665 12.3655 30.9623 12.51C30.8582 12.6544 30.7846 12.8186 30.7462 12.9925C30.7054 13.1659 30.7006 13.3458 30.7321 13.5211C30.7636 13.6964 30.8307 13.8634 30.9292 14.0118C31.02 14.1647 31.1412 14.2974 31.2854 14.4016C31.4296 14.5058 31.5936 14.5793 31.7673 14.6175C31.9407 14.6583 32.1206 14.6631 32.2959 14.6316C32.4712 14.6001 32.6382 14.533 32.7866 14.4345C32.9316 14.346 33.0598 14.2327 33.1654 14.0996C33.2447 14.0085 33.3067 13.9037 33.3484 13.7903L33.3831 13.6806L33.0867 13.2084L32.4663 13.6L32.1242 13.0511L33.4966 12.1983Z" fill="white"/>
<path id="Vector_35" d="M37.1108 11.8781C37.1952 11.6386 37.1814 11.3755 37.0724 11.1462L36.0824 8.92646L36.8839 8.56047L37.8739 10.7783C37.9737 10.9886 38.0292 11.2171 38.0371 11.4498C38.0449 11.6824 38.005 11.9141 37.9196 12.1307C37.8345 12.3509 37.7055 12.5514 37.5403 12.7201C37.3751 12.8887 37.1773 13.0219 36.9589 13.1115C36.7465 13.2141 36.5153 13.2723 36.2796 13.2823C36.0439 13.2924 35.8087 13.2542 35.5883 13.1701C35.37 13.0893 35.1708 12.9644 35.003 12.8032C34.8351 12.642 34.7024 12.448 34.6129 12.2331L33.6229 10.0153L34.4244 9.64928L35.4144 11.869C35.4631 11.9856 35.5344 12.0915 35.6242 12.1804C35.714 12.2693 35.8206 12.3394 35.9378 12.3868C36.048 12.4362 36.1675 12.4617 36.2882 12.4617C36.409 12.4617 36.5284 12.4362 36.6387 12.3868C36.7484 12.3395 36.847 12.2698 36.9283 12.1822C37.0096 12.0946 37.0717 11.9911 37.1108 11.8781Z" fill="white"/>
<path id="Vector_36" d="M39.6046 10.9521L39.5461 11.9787L38.6476 12.2495L39.0136 7.8577L39.9102 7.58687L42.6386 11.0491L41.7402 11.3199L41.1235 10.4946L39.6046 10.9521ZM39.7547 8.70495L39.6632 10.1396L40.6203 9.85049L39.7547 8.70495Z" fill="white"/>
<path id="Vector_37" d="M42.3185 6.95737L44.1082 6.65726C44.2901 6.621 44.4774 6.62159 44.6591 6.65899C44.8408 6.69639 45.0131 6.76985 45.1659 6.87502C45.3135 6.97514 45.4386 7.10499 45.5331 7.25624C45.6276 7.4075 45.6895 7.57683 45.7148 7.75339C45.7423 7.90772 45.7423 8.06569 45.7148 8.22002C45.6935 8.34747 45.6528 8.4709 45.5941 8.58601C45.5438 8.67698 45.4857 8.76332 45.4202 8.84403C45.3739 8.90347 45.3197 8.95641 45.2592 9.0014L45.1915 9.05264L46.3132 10.4379L45.3983 10.5934L44.3826 9.31249L43.6324 9.43692L43.8703 10.8533L43.001 10.9979L42.3185 6.95737ZM44.6297 7.53197C44.5694 7.48969 44.5013 7.45996 44.4293 7.44456C44.3573 7.42915 44.2829 7.42839 44.2106 7.4423L43.3158 7.59236L43.4988 8.66103L44.3936 8.51098C44.4659 8.50111 44.5355 8.47694 44.5984 8.43986C44.6612 8.40279 44.716 8.35355 44.7596 8.29505C44.8023 8.2392 44.8327 8.17495 44.8488 8.1065C44.8649 8.03806 44.8663 7.96698 44.8529 7.89795C44.8428 7.82491 44.8178 7.75472 44.7793 7.69176C44.7409 7.6288 44.69 7.57441 44.6297 7.53197Z" fill="white"/>
<path id="Vector_38" d="M47.6707 9.40583L47.3542 10.383L46.4172 10.4178L47.8812 6.26202L48.8163 6.22725L50.5748 10.2677L49.6379 10.3007L49.2518 9.34727L47.6707 9.40583ZM48.3862 7.27031L47.9343 8.6336L48.9316 8.59883L48.3862 7.27031Z" fill="white"/>
<path id="Vector_39" d="M54.9852 6.59137L54.5643 10.6721L53.8085 10.5934L52.0664 7.79546L51.7993 10.3866L50.9246 10.297L51.3436 6.21623L52.103 6.29492L53.8451 9.09654L54.1123 6.5017L54.9852 6.59137Z" fill="white"/>
<path id="Vector_40" d="M59.0514 7.49353L58.8684 8.26576L57.7302 8.00041L56.9799 11.2211L56.1254 11.0216L56.8756 7.80095L55.7338 7.53561L55.9168 6.76521L59.0514 7.49353Z" fill="white"/>
<path id="Vector_41" d="M61.7139 11.9055L61.4504 12.6484L58.5518 11.6219L59.9205 7.75705L62.7642 8.76351L62.4989 9.51012L60.486 8.79828L60.2115 9.57051L61.7834 10.1195L61.5199 10.8643L59.948 10.3153L59.6442 11.1717L61.7139 11.9055Z" fill="white"/>
<path id="Vector_42" d="M65.1193 13.5616L64.7698 14.268L62.0121 12.9047L63.8292 9.23016L66.5339 10.5678L66.1825 11.276L64.2684 10.33L63.9024 11.0619L65.3956 11.7939L65.0461 12.5002L63.5529 11.7683L63.1503 12.5844L65.1193 13.5616Z" fill="white"/>
</g>
</svg>
