<svg width="206" height="36" xmlns="http://www.w3.org/2000/svg"><path d="M169.328 9.493c-.518.104-.477.292.039.212 5.869-.931 11.882.03 17.168 2.745a26.063 26.063 0 013.716 2.305 17.002 17.002 0 013.12 2.963 20.794 20.794 0 014.007 7.54c.151.593.335 1.178.552 1.75a38.186 38.186 0 00-3.234.819.518.518 0 00-.353.373.519.519 0 00.147.492 14.627 14.627 0 011.839 2.593 17.154 17.154 0 011.971 4.198.511.511 0 00.439.362.515.515 0 00.504-.264 41.183 41.183 0 002.312-4.731 24.74 24.74 0 011.682-3.62.495.495 0 00.08-.26v-.04a.514.514 0 00-.157-.345.502.502 0 00-.346-.143h-.029a26.774 26.774 0 00-3.489.326 6.238 6.238 0 00-.297-1.98 21.843 21.843 0 00-4.597-7.962 18.047 18.047 0 00-3.471-3.03 26.81 26.81 0 00-3.968-2.226 28.875 28.875 0 00-17.635-2.077zM195.77 28.59l.48-.13a.517.517 0 00-.134.591 10.986 10.986 0 00-.346-.46zm2.999 4.486a.517.517 0 00.462.345c-.11.213-.222.426-.336.638a15.227 15.227 0 00-.514-1.18.511.511 0 00.146-.04 3.85 3.85 0 01.239-.095.517.517 0 00.007.334l-.004-.002zm-.831-1.052a39.289 39.289 0 00-.729-1.262 26.425 26.425 0 00-.976-1.538.517.517 0 00.295.135c.382.033.766.043 1.149.032.406-.01.811.002 1.216.033-.34.238-.707.435-1.093.587a.513.513 0 00-.265.85.517.517 0 00.312.163l1.128.148a3.909 3.909 0 01-.919.754.509.509 0 00-.114.1l-.004-.002zm2.656-1.55a29.176 29.176 0 01-.738 1.7l-.016-.026a.922.922 0 00-.172-.204c.16-.17.307-.35.441-.542a.757.757 0 00.139-.715.746.746 0 00-.667-.475c.343-.224.641-.435.794-.546a.52.52 0 00.213-.42.521.521 0 00-.219-.419 2.038 2.038 0 00-.5-.25 12.243 12.243 0 001.754-.496 38.078 38.078 0 00-1.025 2.394h-.004z" fill="#F0CC7F"/><path d="M19.452 13.346c0 .3-.118.587-.328.8a4.279 4.279 0 01-3.1 1c-2.019 0-3.02-1.2-3.02-3.628.064-1.328.251-2.646.558-3.94a23.496 23.496 0 011.165-4.12c.214-.509.493-.77.822-.77a.565.565 0 01.639.638 1.826 1.826 0 01-.131.575 27.108 27.108 0 00-1.691 7.584 2.923 2.923 0 00.361 1.741 1.572 1.572 0 001.33.46c.74-.001 1.469-.188 2.118-.543a.582.582 0 01.623-.439.578.578 0 01.654.642zm7.663.756a.79.79 0 01.2.493c0 .525-.558.8-1.658.8a2.91 2.91 0 01-2.759-1.69h-.5c-.435 0-.865-.09-1.264-.263-.558-.23-.822-.526-.822-.887 0-.46.214-.689.641-.689.182.039.352.124.492.246.192.153.428.24.673.247h.38a3.969 3.969 0 01-.066-.673 4.39 4.39 0 01.592-2.216 2.01 2.01 0 011.74-1.215 1.709 1.709 0 011.2.591 1.827 1.827 0 01.591 1.3c0 1.215-.821 2.266-2.463 3.153a1.676 1.676 0 001.316.705c.208-.005.416-.022.623-.049.279-.034.492-.066.624-.066a.67.67 0 01.46.215v-.002zm-3.333-2.118c.985-.64 1.478-1.23 1.478-1.773a.645.645 0 00-.164-.378.685.685 0 00-.395-.164c-.295 0-.524.246-.689.738a3.418 3.418 0 00-.23 1.281v.296zm8.944-3.71c-.689-.017-1.1-.033-1.215-.033.23-1.084.444-1.954.64-2.627.148-.46.279-.854.378-1.2-.049-.492-.279-.739-.705-.739-.3 0-.493.181-.591.526-.3.984-.657 2.331-1.084 4.071a1.875 1.875 0 00-.771.114.6.6 0 00-.3.591c0 .478.247.706.756.706l-.492 2.364a13.258 13.258 0 00-.313 2.348c0 .886.263 1.345.8 1.345a.746.746 0 00.475-.2.653.653 0 00.23-.46.679.679 0 00-.246-.575c.04-.834.15-1.663.328-2.479.065-.312.246-1.1.542-2.38.164 0 .46.017.919.017.46.016.739.016.853.016a.828.828 0 00.608.231.563.563 0 00.427-.247.937.937 0 00.181-.542c.009-.517-.468-.798-1.42-.847zm4.808-8.27a.909.909 0 00-.821.41 2.029 2.029 0 00-.361 1.165.612.612 0 01-.05.263 6.246 6.246 0 01-.952 1.642.782.782 0 00-.2.491c0 .395.2.591.608.591.2 0 .459-.2.787-.607.359-.508.672-1.046.936-1.609a5.28 5.28 0 00.657-1.658.714.714 0 00-.182-.476.568.568 0 00-.422-.212zm5.793 7.814a1.051 1.051 0 00-.969.41 1.554 1.554 0 00-1.149 1.561c.074.756.274 1.493.592 2.182.274.587.478 1.204.607 1.84 0 .394-.279.574-.821.574a5.414 5.414 0 01-.8-.066c-.33-.03-.509-.065-.543-.065a.46.46 0 00-.378.262.82.82 0 00-.179.526c0 .46.574.705 1.756.705.61.03 1.215-.137 1.724-.475a1.45 1.45 0 00.574-1.166 7.512 7.512 0 00-.607-2.3 8.275 8.275 0 01-.608-1.823c0-.312.213-.476.64-.476.1 0 .246.017.443.017.141.023.284.035.427.033a.6.6 0 00.443-.18.553.553 0 00.181-.444.855.855 0 00-.1-.378c-.067-.493-.478-.74-1.233-.74v.003zm13.21-4.465a1.156 1.156 0 00-1.083.542 7.787 7.787 0 00-2.429 1.461 3.267 3.267 0 00-1.314 2.463 2.28 2.28 0 00.739 1.756c.45.382.96.686 1.51.9 1.182.558 1.789 1.084 1.789 1.544a1.718 1.718 0 01-1.017 1.444 3.577 3.577 0 01-1.774.51 1.678 1.678 0 01-.427-.066 2.361 2.361 0 00-.46-.082.53.53 0 00-.46.246.668.668 0 00-.2.492c0 .558.492.837 1.493.837a4.743 4.743 0 002.742-.919 2.924 2.924 0 001.452-2.448 2.305 2.305 0 00-.739-1.723 6.738 6.738 0 00-1.559-.984c-1.165-.559-1.74-1.068-1.74-1.494 0-.657.476-1.28 1.428-1.9a7.377 7.377 0 012.479-1.067.626.626 0 00.492-.689.782.782 0 00-.261-.614 1.2 1.2 0 00-.661-.213v.004zm6.646 4.925c-.689-.017-1.1-.033-1.215-.033.23-1.084.444-1.954.64-2.627.148-.46.279-.854.378-1.2-.049-.492-.279-.739-.706-.739-.295 0-.492.181-.591.526a86.933 86.933 0 00-1.083 4.071 1.886 1.886 0 00-.772.114.6.6 0 00-.295.591c0 .478.247.706.755.706l-.496 2.363a13.334 13.334 0 00-.312 2.348c0 .886.263 1.345.8 1.345a.747.747 0 00.476-.2.653.653 0 00.23-.46.679.679 0 00-.246-.575c.04-.834.15-1.663.328-2.479.065-.312.246-1.1.542-2.38.164 0 .46.017.919.017.46.016.739.016.853.016a.828.828 0 00.608.231.563.563 0 00.427-.247.937.937 0 00.181-.542c.007-.52-.469-.8-1.421-.85v.004zm8.008 2.326a.818.818 0 01.213.476c-.016.125-.05.246-.1.361a6.24 6.24 0 00-.328 2c.009.293.047.584.114.87.066.394.115.59.115.64a.668.668 0 01-.214.46.864.864 0 01-.475.164c-.476 0-.756-.64-.837-1.888a3.793 3.793 0 01-2.481 1.383 1.55 1.55 0 01-1.231-.607 1.914 1.914 0 01-.526-1.346 4.351 4.351 0 011.691-3.02 4.631 4.631 0 012.972-1.544c.236.015.461.107.64.262a.754.754 0 01.312.558.932.932 0 01-.034.23c.11.322.168.66.169 1.001zm-1.28 0c0-.394-.1-.607-.3-.607-.312 0-.853.378-1.609 1.1a3.235 3.235 0 00-1.244 1.987c0 .411.165.608.51.608a2.473 2.473 0 001.691-1.116 3.372 3.372 0 00.952-1.972zm8.37-1.248c-.263 0-.51.231-.756.657a14.962 14.962 0 01-1.2 1.9 1.58 1.58 0 01-1.132.74c-.263 0-.378-.148-.378-.444.023-.51.072-1.02.148-1.526.1-.756.164-1.215.164-1.362a2.616 2.616 0 00-.2-1.052c-.148-.36-.361-.542-.623-.542-.492 0-.722.213-.722.624.004.146.031.29.082.426.043.14.07.282.082.427-.018.505-.061 1.01-.131 1.51a14.175 14.175 0 00-.117 1.55 1.9 1.9 0 00.46 1.33 1.458 1.458 0 001.215.525c.837 0 1.691-.607 2.561-1.823 0 .534-.045 1.067-.131 1.593-.394 2.183-1.839 3.283-4.35 3.316a26.536 26.536 0 00-.887-.1.578.578 0 00-.623.656c0 .591.509.9 1.526.9a5.892 5.892 0 003.929-1.292c1.231-1.05 1.855-2.758 1.855-5.17v-1.1c0-1.15-.263-1.742-.772-1.742zm14.736 3.3c-.223.07-.433.176-.623.312a5.584 5.584 0 01-2.741.9c-1.249 0-1.872-.87-1.872-2.643a9.772 9.772 0 011.05-4.319c.706-1.427 1.428-2.15 2.15-2.15a1.546 1.546 0 011.084.608c.361.41.623.608.821.608a.787.787 0 00.542-.213.727.727 0 00.214-.526 1.388 1.388 0 00-.362-.787 3.76 3.76 0 00-.919-.822 2.284 2.284 0 00-1.163-.39c-1.379 0-2.576.92-3.561 2.757a10.71 10.71 0 00-1.3 5.09 5.41 5.41 0 00.739 2.988 2.935 2.935 0 002.561 1.3 6.649 6.649 0 001.659-.295 6.791 6.791 0 001.788-.756c.444-.278.674-.574.674-.886a.743.743 0 00-.247-.525.7.7 0 00-.494-.249v-.002zm7.089-3.136c.357.516.546 1.13.542 1.757a4.751 4.751 0 01-.8 2.79 2.391 2.391 0 01-2 1.117 2.213 2.213 0 01-1.723-.8 3.072 3.072 0 01-.674-2.068 4.223 4.223 0 01.476-2 3.029 3.029 0 011.345-1.462c.187-.08.369-.173.543-.278a.958.958 0 01.475-.213c.134.024.266.057.395.1.57.2 1.067.57 1.421 1.06V9.52zm-.756 2c0-.688-.164-1.148-.476-1.345a1.223 1.223 0 01-.64-.149 1.319 1.319 0 00-1.132.806 2.91 2.91 0 00-.378 1.477 1.7 1.7 0 00.313 1.034.887.887 0 00.787.46 1.333 1.333 0 001.067-.738c.297-.46.456-.994.46-1.54l-.001-.005zm8.189-2.2a13.306 13.306 0 00-3.741 3.24c.003-.85.086-1.696.247-2.53.082-.393.164-.754.247-1.082a1.12 1.12 0 00-.247-.706.822.822 0 00-.624-.279c-.2 0-.312.131-.378.361a14.911 14.911 0 00-.54 3.907c0 1.953.327 2.922 1.018 2.922.164 0 .328-.147.492-.41.1-.2.2-.41.312-.607a11.285 11.285 0 012.873-2.924l-.247 2.1c-.067.607-.1.92-.1.936-.001.257.086.506.247.706a.759.759 0 00.607.3c.231 0 .362-.165.395-.46.262-2.315.394-3.859.394-4.613a.777.777 0 00-.312-.609 1.19 1.19 0 00-.643-.246V9.32zm7.828 0a13.308 13.308 0 00-3.743 3.233c.003-.849.086-1.695.247-2.529.082-.393.164-.754.246-1.082a1.124 1.124 0 00-.246-.706.822.822 0 00-.624-.279c-.2 0-.312.131-.378.361a14.911 14.911 0 00-.54 3.907c0 1.953.327 2.922 1.017 2.922.165 0 .328-.147.493-.41.1-.2.2-.41.312-.607a11.273 11.273 0 012.872-2.923l-.247 2.1c-.067.607-.1.92-.1.936-.001.257.086.506.246.706a.754.754 0 00.608.3c.23 0 .361-.165.395-.46.262-2.315.394-3.859.394-4.613a.777.777 0 00-.312-.609 1.192 1.192 0 00-.64-.24V9.32zm8.943 4.776a.79.79 0 01.2.493c0 .525-.558.8-1.658.8a2.91 2.91 0 01-2.758-1.69h-.496c-.435 0-.866-.09-1.265-.263-.557-.23-.821-.526-.821-.887 0-.46.213-.689.641-.689.182.039.351.123.491.246.192.153.429.24.674.247h.377a4.107 4.107 0 01-.065-.673 4.387 4.387 0 01.591-2.216 2.009 2.009 0 011.74-1.215 1.712 1.712 0 011.2.591 1.83 1.83 0 01.591 1.3c0 1.215-.821 2.266-2.463 3.153a1.67 1.67 0 001.313.706 6.08 6.08 0 00.624-.049c.279-.034.492-.066.623-.066a.662.662 0 01.461.22v-.008zm-3.332-2.112c.985-.64 1.477-1.23 1.478-1.773a.643.643 0 00-.165-.378.677.677 0 00-.394-.164c-.295 0-.526.247-.689.738a3.4 3.4 0 00-.23 1.281v.296zm9.173.69a1.018 1.018 0 00-.557.327c-.2.165-.395.328-.558.493a1.65 1.65 0 01-1.035.311c-.657 0-.969-.394-.969-1.214.007-.534.16-1.056.443-1.51a3.707 3.707 0 011.1-1.2c.281.13.591.187.9.165a.929.929 0 00.64-.28.851.851 0 00.279-.574.769.769 0 00-.295-.623 1.2 1.2 0 00-.689-.23 3.4 3.4 0 00-2.742 1.608 4.574 4.574 0 00-.952 2.807 2.372 2.372 0 00.689 1.757 2.39 2.39 0 001.723.674 3.057 3.057 0 001.888-.74c.509-.394.771-.738.771-1.066a.79.79 0 00-.2-.493.632.632 0 00-.435-.213h-.001zm6.35-4.4c-.688-.018-1.1-.034-1.214-.034.23-1.084.444-1.954.64-2.627.148-.46.279-.854.377-1.2-.048-.492-.278-.739-.705-.739-.295 0-.492.181-.591.526a85.694 85.694 0 00-1.083 4.071 1.888 1.888 0 00-.772.114.595.595 0 00-.3.591c0 .478.247.706.756.706l-.492 2.364a13.362 13.362 0 00-.312 2.348c0 .886.263 1.345.8 1.345a.748.748 0 00.476-.2.642.642 0 00.23-.46.679.679 0 00-.247-.575 15.22 15.22 0 01.328-2.479c.066-.312.247-1.1.542-2.38.165 0 .46.017.92.017.46.016.739.016.853.016a.825.825 0 00.608.231.567.567 0 00.427-.247.935.935 0 00.179-.542c.009-.516-.466-.797-1.423-.846h.003zm8.585 5.827a.79.79 0 01.2.493c0 .525-.559.8-1.659.8a2.91 2.91 0 01-2.757-1.69h-.493c-.435 0-.865-.09-1.264-.263-.558-.23-.822-.526-.822-.887 0-.46.213-.689.641-.689.182.039.352.124.492.246.192.153.428.24.673.247h.378a3.897 3.897 0 01-.065-.673 4.387 4.387 0 01.591-2.216 2.009 2.009 0 011.74-1.215 1.71 1.71 0 011.2.591 1.83 1.83 0 01.591 1.3c0 1.216-.821 2.267-2.463 3.153a1.68 1.68 0 001.313.706c.209-.005.417-.022.624-.049.279-.034.493-.066.624-.066.174.01.338.087.456.215v-.003zm-3.333-2.118c.985-.64 1.478-1.23 1.478-1.773a.643.643 0 00-.164-.378.677.677 0 00-.394-.164c-.296 0-.526.246-.691.738a3.4 3.4 0 00-.23 1.281l.001.296zm10.816-8.679c-.032.353-.081.704-.148 1.051-.142.692-.23 1.394-.262 2.1-.016.263-.034.46-.034.558a.9.9 0 01-.262.476 57.547 57.547 0 00-.131 3.677 25.417 25.417 0 00.3 4.251c.065.46.115.723.115.788a.6.6 0 01-.2.444.669.669 0 01-.443.2c-.327 0-.525-.229-.591-.656-.067-.361-.182-1.265-.345-2.71a3.76 3.76 0 01-1.066 1.315c-.396.37-.905.594-1.445.64a1.664 1.664 0 01-1.33-.543c-.329-.4-.493-.91-.46-1.428a5.113 5.113 0 011.182-2.84c.771-1.067 1.493-1.609 2.184-1.609.339.05.651.212.887.46.108-2.126.388-4.239.836-6.32a.567.567 0 01.624-.493c.392-.004.588.21.589.64zm-2.429 8.045a1.478 1.478 0 01-.46-.887.395.395 0 01-.115-.017c-.262 0-.756.492-1.462 1.445-.364.43-.582.964-.622 1.526 0 .411.147.608.443.608a1.548 1.548 0 001.067-.574c.307-.32.562-.685.756-1.084.096-.234.227-.58.392-1.02l.001.003zm7.581-7.536a.537.537 0 00-.427-.23.87.87 0 00-.557.23 1.09 1.09 0 00-.378.558 2.626 2.626 0 00-.131.674c0 .095.016.189.048.278a18.766 18.766 0 00-.46 3.234 77.86 77.86 0 00-.147 2.43c-.033.393-.033.64-.033.738-.004.085.01.17.04.25.031.079.079.15.139.21a.576.576 0 00.46.2c.411 0 .624-.279.658-.87.041-2.22.305-4.432.787-6.6.066-.262.132-.476.18-.623a.79.79 0 00-.18-.488l.001.01zm-1.133 10.162a.784.784 0 00-.377-.147.845.845 0 00-.608.246.724.724 0 00-.262.574.852.852 0 00.344.771.782.782 0 00.608.362c.476 0 .723-.262.723-.788a1.1 1.1 0 00-.429-1.023l.001.005z" fill="#3A3535"/></svg>